<svg width="15" height="16" viewBox="0 0 15 16" fill="none" xmlns="http://www.w3.org/2000/svg">
<g clip-path="url(#clip0_102_1133)">
<path d="M9.10501 2.25005C9.67524 2.25005 10.1375 1.84263 10.1375 1.34005C10.1375 0.837475 9.67524 0.430054 9.10501 0.430054C8.53478 0.430054 8.07251 0.837475 8.07251 1.34005C8.07251 1.84263 8.53478 2.25005 9.10501 2.25005Z" fill="#57B260"/>
<path d="M8.98108 2.24995C8.81979 2.23409 8.66521 2.18423 8.53042 2.10458C8.39563 2.02492 8.28459 1.91783 8.2067 1.79235C8.16375 1.71964 8.14936 1.63643 8.1658 1.55575C8.18224 1.47507 8.22857 1.40147 8.29754 1.34648C8.36651 1.29149 8.45423 1.25821 8.54696 1.25185C8.63968 1.24549 8.73219 1.26642 8.80998 1.31135C8.98371 1.41597 9.18957 1.4713 9.39998 1.46995H9.40883C9.49752 1.46506 9.58553 1.48636 9.65896 1.53048C9.73239 1.5746 9.78704 1.63903 9.81428 1.71358C9.84152 1.78814 9.83979 1.86856 9.80937 1.94216C9.77895 2.01575 9.72157 2.07831 9.6463 2.11995C9.44764 2.22838 9.21312 2.27421 8.98108 2.24995Z" fill="#3D9940"/>
<path d="M2.32007 4.91502C2.32491 4.76991 2.36214 4.62706 2.42962 4.49463C2.4971 4.3622 2.59351 4.24278 2.71336 4.14319C2.8332 4.04359 2.97413 3.96578 3.1281 3.91419C3.28206 3.86261 3.44605 3.83825 3.61069 3.84252C3.77534 3.84679 3.93742 3.87959 4.08768 3.93907C4.23793 3.99854 4.37343 4.08352 4.48643 4.18915C4.59943 4.29477 4.68771 4.41898 4.74624 4.55468C4.80478 4.69038 4.83241 4.83491 4.82757 4.98002H2.32007V4.91502Z" fill="#57B260"/>
<path d="M4.31132 4.98003H2.32007V4.91503C2.32035 4.69484 2.39517 4.47973 2.53496 4.29723C2.67475 4.11474 2.87315 3.97316 3.10477 3.89062C3.10413 3.89319 3.10413 3.89586 3.10477 3.89843C3.07285 3.97411 3.05686 4.05429 3.05757 4.13503C3.05757 4.60173 3.61954 4.98003 4.31132 4.98003ZM4.82757 4.98003H4.68007C4.72919 4.98267 4.77845 4.98267 4.82757 4.98003Z" fill="#3D9940"/>
<path d="M11.1699 14.093C11.5351 13.8831 11.8743 13.64 12.1817 13.3676L12.3499 13.43L13.0874 15.51H12.2024L11.3174 14.1229L11.1699 14.093ZM2.04849 13.3676C2.31966 13.6083 2.61597 13.8259 2.93349 14.0176L2.90547 14.1203L2.02489 15.51H1.13989L1.87739 13.43L2.04849 13.3676Z" fill="#596870"/>
<path d="M12.7409 7.82825C12.3672 7.38102 12.1773 6.83496 12.2025 6.27995H12.645C12.8406 6.27995 13.0282 6.21147 13.1665 6.08957C13.3048 5.96767 13.3825 5.80234 13.3825 5.62995C13.3825 5.45756 13.3048 5.29223 13.1665 5.17033C13.0282 5.04843 12.8406 4.97995 12.645 4.97995C0.535299 4.97995 1.2256 4.89675 0.912899 5.16975C0.809491 5.26066 0.739038 5.37658 0.710472 5.50282C0.681906 5.62906 0.696513 5.75994 0.752442 5.87885C0.80837 5.99777 0.903101 6.09937 1.02463 6.17078C1.14615 6.24218 1.28899 6.28018 1.43505 6.27995H2.02505C2.05202 6.83435 1.86425 7.38035 1.49257 7.82825C0.886832 8.54604 0.556655 9.41541 0.550049 10.3099C0.550049 12.9697 3.48972 15.1199 7.1138 15.1199C10.7379 15.1199 13.6775 12.9736 13.6775 10.3099C13.6727 9.41599 13.3446 8.54668 12.7409 7.82825Z" fill="#979EA0"/>
<path d="M13.6554 10.6999C13.3826 13.1816 10.5447 15.1199 7.1138 15.1199C3.48972 15.1199 0.550049 12.9658 0.550049 10.3099C0.555886 9.41732 0.883928 8.5495 1.48667 7.83215C1.8612 7.38376 2.0511 6.83625 2.02505 6.27995H1.43505C1.28899 6.28018 1.14615 6.24218 1.02463 6.17077C0.903101 6.09936 0.80837 5.99776 0.752442 5.87885C0.696514 5.75993 0.681906 5.62906 0.710472 5.50282C0.739039 5.37658 0.809491 5.26065 0.912899 5.16974C1.2079 4.90974 0.877498 4.97994 8.36607 4.97994C8.52255 4.97994 8.67262 5.03473 8.78327 5.13225C8.89391 5.22977 8.95607 5.36203 8.95607 5.49994V7.44995L9.84107 9.71975C9.97242 10.0089 10.199 10.2568 10.4916 10.4315C10.7841 10.6062 11.1294 10.6997 11.4828 10.6999H13.6554Z" fill="#747F84"/>
<path d="M8.36745 4.98004H5.05165C4.92244 4.61439 4.95723 4.21898 5.14886 3.87525C5.34049 3.53153 5.67436 3.26564 6.08173 3.13236C6.4891 2.99907 6.93895 3.00853 7.33865 3.15879C7.73835 3.30904 8.05746 3.58865 8.23027 3.94004C8.41308 3.80626 8.63526 3.72101 8.87092 3.69424C9.10659 3.66746 9.34603 3.70026 9.56136 3.78882C9.77668 3.87737 9.95902 4.01803 10.0871 4.19441C10.2152 4.37079 10.2838 4.57562 10.2849 4.78504V9.98504C10.2849 10.1402 10.215 10.289 10.0905 10.3987C9.96606 10.5084 9.79723 10.57 9.6212 10.57C9.44516 10.57 9.27633 10.5084 9.15185 10.3987C9.02738 10.289 8.95745 10.1402 8.95745 9.98504V5.50004C8.95745 5.36213 8.89529 5.22987 8.78464 5.13235C8.67399 5.03483 8.52392 4.98004 8.36745 4.98004Z" fill="#57B260"/>
<path d="M7.01843 3.85305C7.05888 3.75142 6.93588 3.62088 6.7437 3.56146C6.55153 3.50205 6.36295 3.53627 6.3225 3.63789C6.28206 3.73952 6.40506 3.87006 6.59723 3.92948C6.7894 3.98889 6.97798 3.95467 7.01843 3.85305Z" fill="#A3D6A5"/>
<path d="M9.28069 4.3445C9.30495 4.28353 9.23053 4.205 9.11446 4.16912C8.99839 4.13323 8.88462 4.15357 8.86035 4.21455C8.83608 4.27552 8.9105 4.35404 9.02658 4.38993C9.14265 4.42581 9.25642 4.40548 9.28069 4.3445Z" fill="#A3D6A5"/>
<path d="M3.82268 4.4739C3.84695 4.41292 3.77252 4.3344 3.65645 4.29851C3.54038 4.26263 3.42661 4.28297 3.40234 4.34394C3.37807 4.40492 3.45249 4.48344 3.56857 4.51932C3.68464 4.55521 3.79841 4.53487 3.82268 4.4739Z" fill="#A3D6A5"/>
<path d="M9.42815 1.09328C9.45242 1.03231 9.37799 0.953784 9.26192 0.917898C9.14585 0.882012 9.03208 0.902351 9.00781 0.963326C8.98354 1.0243 9.05796 1.10282 9.17404 1.13871C9.29011 1.17459 9.40388 1.15425 9.42815 1.09328Z" fill="#A3D6A5"/>
<path d="M7.48262 4.45997H7.26137C6.8878 4.45998 6.52467 4.35129 6.22836 4.15078C5.93205 3.95027 5.71913 3.66916 5.62265 3.35107C5.35117 3.53944 5.15116 3.79616 5.04919 4.08712C4.94723 4.37807 4.94815 4.68949 5.05182 4.97997H8.36762C8.5241 4.97997 8.67417 5.03476 8.78481 5.13228C8.89546 5.2298 8.95762 5.36206 8.95762 5.49997V10.57H9.69512V5.49997C9.69512 5.22415 9.5708 4.95962 9.34951 4.76458C9.12821 4.56955 8.82808 4.45997 8.51512 4.45997H7.48262Z" fill="#3D9940"/>
<path d="M9.7983 14.6987C8.93919 14.9793 8.02999 15.122 7.1138 15.1199C3.48972 15.1199 0.550049 12.9658 0.550049 10.3099C0.550049 10.267 0.550049 10.2254 0.550049 10.1799C0.585073 9.331 0.910541 8.51123 1.48372 7.82825C1.85833 7.38126 2.04924 6.83524 2.02505 6.27995H1.43505C1.24198 6.27998 1.0566 6.21329 0.918704 6.09419C0.780812 5.97508 0.70141 5.81308 0.697549 5.64295C0.695067 5.59498 0.699528 5.54692 0.710824 5.49995C0.831774 4.94095 1.38932 4.97995 1.76692 4.97995C2.58997 4.95915 4.35555 4.97995 8.36607 4.97995C8.52255 4.97995 8.67262 5.03473 8.78327 5.13225C8.89391 5.22977 8.95607 5.36203 8.95607 5.49995V6.92995H7.4206C7.15934 6.93005 6.90135 6.98113 6.66515 7.07952C6.42894 7.1779 6.22037 7.32115 6.05441 7.49898C5.88846 7.67682 5.76922 7.88482 5.70527 8.10808C5.64132 8.33133 5.63423 8.56429 5.68452 8.79025L6.4648 12.3002C6.5438 12.6552 6.76031 12.9749 7.07727 13.2047C7.39422 13.4345 7.79193 13.5601 8.20235 13.5599H9.54755C10.285 13.5599 10.4901 14.4699 9.7983 14.6987Z" fill="#596870"/>
<path d="M5.56501 5.62998C5.48677 5.62998 5.41174 5.60259 5.35641 5.55383C5.30109 5.50507 5.27001 5.43894 5.27001 5.36998V4.97998H1.43501C1.23941 4.97998 1.05183 5.04846 0.913519 5.17036C0.77521 5.29226 0.69751 5.45759 0.69751 5.62998C0.69751 5.80237 0.77521 5.9677 0.913519 6.0896C1.05183 6.2115 1.23941 6.27998 1.43501 6.27998H8.95751V5.62998H5.56501ZM13.3825 5.62998C13.3825 5.80237 13.3048 5.9677 13.1665 6.0896C13.0282 6.2115 12.8406 6.27998 12.645 6.27998H10.285V4.97998H12.645C12.8406 4.97998 13.0282 5.04846 13.1665 5.17036C13.3048 5.29226 13.3825 5.45759 13.3825 5.62998Z" fill="#505D68"/>
<path d="M12.6449 4.97998H10.2849V6.92998H12.2791C12.2269 6.71641 12.2012 6.49846 12.2024 6.27998H12.6449C12.8405 6.27998 13.0281 6.2115 13.1664 6.0896C13.3047 5.9677 13.3824 5.80237 13.3824 5.62998C13.3824 5.45759 13.3047 5.29226 13.1664 5.17036C13.0281 5.04846 12.8405 4.97998 12.6449 4.97998Z" fill="#505D68"/>
<path d="M13.3824 5.62998C13.3824 5.45759 13.3047 5.29226 13.1664 5.17036C13.0281 5.04846 12.8405 4.97998 12.6449 4.97998H10.2849V6.27998H12.6449C12.8405 6.27998 13.0281 6.2115 13.1664 6.0896C13.3047 5.9677 13.3824 5.80237 13.3824 5.62998Z" fill="#747F84"/>
<path d="M13.3824 5.62998H10.2849V4.97998H12.6449C12.8405 4.97998 13.0281 5.04846 13.1664 5.17036C13.3047 5.29226 13.3824 5.45759 13.3824 5.62998Z" fill="#979EA0"/>
<path d="M5.27001 6.28H1.43501C1.23941 6.28 1.05183 6.21152 0.913519 6.08962C0.77521 5.96773 0.69751 5.8024 0.69751 5.63H4.53251C4.72811 5.63 4.91569 5.69849 5.054 5.82039C5.19231 5.94228 5.27001 6.10761 5.27001 6.28Z" fill="#404B4F"/>
<path d="M10.2849 5.63H11.3174C11.3957 5.63 11.4707 5.6574 11.526 5.70616C11.5813 5.75492 11.6124 5.82105 11.6124 5.89V6.28H10.2849V5.63Z" fill="#505D68"/>
<path d="M12.7926 13.3546C14.4682 11.6399 14.5626 9.36748 13.1053 7.60078C12.8778 7.32633 12.7309 7.00658 12.6775 6.66998C12.9905 6.66619 13.2889 6.55298 13.5072 6.35526C13.7254 6.15754 13.8456 5.89151 13.8413 5.61568C13.837 5.33986 13.7086 5.07684 13.4842 4.88448C13.2599 4.69213 12.958 4.58619 12.6451 4.58998H10.7114C10.6773 4.36347 10.5848 4.14685 10.441 3.95676C10.2971 3.76666 10.1058 3.60816 9.88159 3.49342C9.65739 3.37868 9.40635 3.31076 9.14772 3.29488C8.8891 3.27899 8.62979 3.31556 8.38971 3.40178C8.20011 3.17761 7.95635 2.99339 7.67605 2.86245C7.39575 2.73151 7.08592 2.65713 6.769 2.64469C6.45208 2.63225 6.13598 2.68206 5.84358 2.79051C5.55118 2.89897 5.28979 3.06336 5.07834 3.27178C4.68894 3.66178 5.34678 4.18178 5.73766 3.79178C5.87809 3.65322 6.0559 3.54811 6.25464 3.48616C6.45338 3.42421 6.66663 3.40743 6.87468 3.43736C7.08273 3.4673 7.27886 3.54298 7.44492 3.65742C7.61099 3.77186 7.74164 3.92135 7.82479 4.09208C7.85227 4.14772 7.8941 4.19695 7.94696 4.23583C7.99982 4.27472 8.06224 4.3022 8.12927 4.31608C8.19629 4.32997 8.26607 4.32988 8.33305 4.31581C8.40003 4.30175 8.46236 4.27411 8.51509 4.23508C8.65971 4.12815 8.84255 4.06967 9.03134 4.06998C9.24637 4.07033 9.45249 4.14577 9.60455 4.27978C9.7566 4.4138 9.8422 4.59546 9.84259 4.78498V9.98498C9.84259 10.0367 9.81928 10.0863 9.77778 10.1229C9.73629 10.1594 9.68001 10.18 9.62134 10.18C9.56266 10.18 9.50638 10.1594 9.46489 10.1229C9.4234 10.0863 9.40009 10.0367 9.40009 9.98498V5.49998C9.40009 5.25864 9.2913 5.02717 9.09767 4.85652C8.90404 4.68586 8.64142 4.58998 8.36759 4.58998H5.22879C5.14559 4.25775 4.9362 3.96051 4.63526 3.74742C4.33432 3.53434 3.95986 3.41819 3.57383 3.41819C3.18781 3.41819 2.81335 3.53434 2.51241 3.74742C2.21147 3.96051 2.00208 4.25775 1.91888 4.58998H1.43508C1.12213 4.58998 0.821992 4.69955 0.600699 4.89459C0.379406 5.08963 0.255085 5.35416 0.255085 5.62998C0.255085 6.12528 0.656285 6.66998 1.55456 6.66998C1.5014 7.00601 1.35498 7.32528 1.12828 7.59948C-0.32754 9.37398 -0.225765 11.649 1.43508 13.3585L0.71381 15.3943C0.693141 15.4529 0.688471 15.515 0.700178 15.5755C0.711885 15.6361 0.739639 15.6933 0.781182 15.7426C0.822725 15.7919 0.876883 15.8318 0.939249 15.8592C1.00162 15.8865 1.07043 15.9005 1.14008 15.9C2.51626 15.9 2.13866 16.1262 3.12396 14.5844C5.48396 15.8025 8.66849 15.8376 11.1022 14.5844L11.8176 15.705C11.9784 15.9546 12.2026 15.9 13.0876 15.9C13.1569 15.8999 13.2252 15.8854 13.287 15.8578C13.3488 15.8302 13.4023 15.7902 13.4434 15.741C13.4844 15.6918 13.5118 15.6348 13.5232 15.5746C13.5347 15.5144 13.53 15.4526 13.5094 15.3943L12.7926 13.3546ZM12.6451 5.88998H10.7276V5.36998H12.6451C12.7233 5.36998 12.7984 5.39738 12.8537 5.44614C12.909 5.4949 12.9401 5.56103 12.9401 5.62998C12.9401 5.69894 12.909 5.76507 12.8537 5.81383C12.7984 5.86259 12.7233 5.88998 12.6451 5.88998ZM3.57383 4.19998C3.72349 4.19952 3.87035 4.23574 3.99798 4.30462C4.12562 4.37349 4.22901 4.47229 4.29659 4.58998H2.85256C2.92042 4.47277 3.02367 4.37435 3.15093 4.30553C3.27819 4.23672 3.42453 4.2002 3.57383 4.19998ZM1.76696 15.12H1.74188L2.14751 13.976C2.22519 14.034 2.30533 14.0908 2.38793 14.1463L1.76696 15.12ZM1.84661 8.05578C2.18789 7.64391 2.39635 7.15831 2.44988 6.65048C2.54923 6.62176 2.63382 6.56296 2.68867 6.48451C2.74351 6.40606 2.76507 6.31303 2.74952 6.2219C2.73397 6.13078 2.68231 6.04746 2.6037 5.9867C2.5251 5.92594 2.42462 5.89168 2.32008 5.88998H1.43508C1.35685 5.88998 1.28181 5.86259 1.22649 5.81383C1.17117 5.76507 1.14008 5.69894 1.14008 5.62998C1.14008 5.56103 1.17117 5.4949 1.22649 5.44614C1.28181 5.39738 1.35685 5.36998 1.43508 5.36998C8.79091 5.36998 8.51509 5.31018 8.51509 5.49998V5.88998H3.79508C3.20508 5.88998 3.20508 6.66998 3.79508 6.66998H8.51509V9.98498C8.51568 10.1774 8.58076 10.3653 8.70215 10.5252C8.82354 10.6851 8.99583 10.8099 9.19738 10.8837C9.39893 10.9576 9.62076 10.9774 9.83501 10.9405C10.0493 10.9037 10.2464 10.8118 10.4016 10.6766C10.5056 10.5863 10.588 10.4786 10.644 10.3598C10.7 10.2411 10.7284 10.1136 10.7276 9.98498V6.66998H11.7822C11.8385 7.17124 12.0458 7.65013 12.3825 8.05708C14.7647 10.96 11.8973 14.73 7.11384 14.73C2.38498 14.73 -0.56059 10.9899 1.84513 8.05578H1.84661ZM12.4666 15.12L11.8442 14.145C11.9258 14.0895 12.0059 14.0323 12.0846 13.9734L12.4917 15.12H12.4666Z" fill="#31352E"/>
<path d="M6.59746 7.45004V8.10004C6.59746 8.62004 7.48246 8.62004 7.48246 8.10004V7.45004C7.48246 6.93004 6.59746 6.93004 6.59746 7.45004ZM9.10496 2.64004C9.39669 2.64004 9.68187 2.5638 9.92443 2.42095C10.167 2.2781 10.356 2.07507 10.4677 1.83753C10.5793 1.59998 10.6085 1.3386 10.5516 1.08642C10.4947 0.834247 10.3542 0.602609 10.1479 0.420801C9.94166 0.238993 9.67884 0.11518 9.39272 0.0650188C9.1066 0.014858 8.81002 0.0406023 8.5405 0.138996C8.27098 0.23739 8.04062 0.404014 7.87854 0.617798C7.71647 0.831582 7.62996 1.08292 7.62996 1.34004C7.62996 1.68482 7.78536 2.01548 8.06198 2.25928C8.3386 2.50308 8.71377 2.64004 9.10496 2.64004ZM9.10496 0.82004C9.22165 0.82004 9.33572 0.850537 9.43275 0.907675C9.52977 0.964814 9.6054 1.04603 9.65005 1.14104C9.69471 1.23606 9.70639 1.34062 9.68363 1.44149C9.66086 1.54236 9.60467 1.63501 9.52216 1.70774C9.43964 1.78046 9.33451 1.82998 9.22007 1.85005C9.10562 1.87011 8.98699 1.85981 8.87918 1.82046C8.77137 1.7811 8.67922 1.71445 8.61439 1.62894C8.54956 1.54342 8.51496 1.44289 8.51496 1.34004C8.51496 1.20213 8.57712 1.06986 8.68777 0.972344C8.79841 0.874825 8.94848 0.82004 9.10496 0.82004ZM4.31121 2.51004C4.44249 2.51004 4.57082 2.47573 4.67997 2.41145C4.78912 2.34717 4.8742 2.2558 4.92444 2.14891C4.97467 2.04201 4.98782 1.92439 4.96221 1.81091C4.9366 1.69743 4.87338 1.5932 4.78055 1.51138C4.68773 1.42957 4.56946 1.37385 4.4407 1.35128C4.31195 1.32871 4.17849 1.34029 4.0572 1.38457C3.93592 1.42885 3.83226 1.50383 3.75932 1.60003C3.68639 1.69623 3.64746 1.80934 3.64746 1.92504C3.64746 2.08019 3.71739 2.22899 3.84187 2.3387C3.96635 2.44841 4.13517 2.51004 4.31121 2.51004ZM4.31121 1.73004C4.35497 1.73004 4.39775 1.74148 4.43413 1.7629C4.47052 1.78433 4.49887 1.81478 4.51562 1.85042C4.53237 1.88605 4.53675 1.92526 4.52821 1.96308C4.51967 2.00091 4.4986 2.03565 4.46766 2.06293C4.43672 2.0902 4.39729 2.10877 4.35437 2.11629C4.31146 2.12382 4.26697 2.11996 4.22654 2.1052C4.18611 2.09044 4.15156 2.06544 4.12725 2.03338C4.10294 2.00131 4.08996 1.96361 4.08996 1.92504C4.08996 1.87332 4.11327 1.82372 4.15476 1.78715C4.19626 1.75058 4.25253 1.73004 4.31121 1.73004Z" fill="#31352E"/>
</g>
<defs>
<clipPath id="clip0_102_1133">
<rect width="14.24" height="16" fill="white"/>
</clipPath>
</defs>
</svg>
