<svg width="118" height="289" viewBox="0 0 118 289" fill="none" xmlns="http://www.w3.org/2000/svg">
<rect x="0.5" y="0.5" width="214" height="288" rx="19.5" fill="#923943"/>
<path d="M120.906 110.062C124.47 110.062 127.359 107.516 127.359 104.375C127.359 101.234 124.47 98.6875 120.906 98.6875C117.342 98.6875 114.453 101.234 114.453 104.375C114.453 107.516 117.342 110.062 120.906 110.062Z" fill="#57B260"/>
<path d="M120.132 110.062C119.124 109.963 118.158 109.652 117.315 109.154C116.473 108.656 115.779 107.987 115.292 107.202C115.024 106.748 114.934 106.228 115.036 105.724C115.139 105.22 115.429 104.76 115.86 104.416C116.291 104.072 116.839 103.864 117.419 103.824C117.998 103.785 118.576 103.915 119.063 104.196C120.148 104.85 121.435 105.196 122.75 105.187H122.805C123.36 105.157 123.91 105.29 124.369 105.566C124.828 105.842 125.169 106.244 125.339 106.71C125.51 107.176 125.499 107.679 125.309 108.139C125.119 108.599 124.76 108.99 124.29 109.25C123.048 109.928 121.582 110.214 120.132 110.062Z" fill="#3D9940"/>
<path d="M78.5 126.719C78.5303 125.812 78.7629 124.919 79.1847 124.091C79.6064 123.264 80.209 122.517 80.9581 121.895C81.7071 121.272 82.5879 120.786 83.5502 120.464C84.5125 120.141 85.5374 119.989 86.5664 120.016C87.5954 120.042 88.6084 120.247 89.5475 120.619C90.4867 120.991 91.3335 121.522 92.0397 122.182C92.746 122.842 93.2978 123.619 93.6636 124.467C94.0294 125.315 94.2021 126.218 94.1719 127.125H78.5V126.719Z" fill="#57B260"/>
<path d="M90.9453 127.125H78.5V126.719C78.5017 125.343 78.9694 123.998 79.8431 122.858C80.7168 121.717 81.9568 120.832 83.4044 120.316C83.4004 120.332 83.4004 120.349 83.4044 120.365C83.2049 120.838 83.1049 121.339 83.1094 121.844C83.1094 124.761 86.6217 127.125 90.9453 127.125ZM94.1719 127.125H93.25C93.557 127.142 93.8649 127.142 94.1719 127.125Z" fill="#3D9940"/>
<path d="M133.812 184.081C136.095 182.77 138.215 181.25 140.137 179.548L141.188 179.938L145.797 192.938H140.266L134.734 184.268L133.812 184.081ZM76.8038 179.548C78.4985 181.052 80.3505 182.412 82.335 183.61L82.1598 184.252L76.6562 192.938H71.125L75.7344 179.938L76.8038 179.548Z" fill="#596870"/>
<path d="M143.63 144.927C141.294 142.132 140.108 138.719 140.266 135.25H143.031C144.254 135.25 145.426 134.822 146.291 134.06C147.155 133.298 147.641 132.265 147.641 131.187C147.641 130.11 147.155 129.077 146.291 128.315C145.426 127.553 144.254 127.125 143.031 127.125C67.3453 127.125 71.6597 126.605 69.7053 128.311C69.059 128.879 68.6187 129.604 68.4401 130.393C68.2616 131.182 68.3529 132 68.7025 132.743C69.052 133.486 69.6441 134.121 70.4036 134.568C71.1631 135.014 72.0559 135.251 72.9688 135.25H76.6562C76.8248 138.715 75.6513 142.127 73.3283 144.927C69.5424 149.413 67.4788 154.847 67.4375 160.438C67.4375 177.061 85.8105 190.5 108.461 190.5C131.111 190.5 149.484 177.086 149.484 160.438C149.454 154.85 147.403 149.417 143.63 144.927Z" fill="#979EA0"/>
<path d="M149.346 162.875C147.641 178.386 129.904 190.5 108.461 190.5C85.8105 190.5 67.4375 177.037 67.4375 160.438C67.474 154.859 69.5242 149.435 73.2914 144.951C75.6322 142.149 76.8191 138.727 76.6563 135.25H72.9688C72.0559 135.251 71.1631 135.014 70.4036 134.568C69.6441 134.121 69.052 133.486 68.7025 132.743C68.3529 132 68.2616 131.182 68.4401 130.393C68.6187 129.604 69.059 128.879 69.7053 128.311C71.5491 126.686 69.4841 127.125 116.288 127.125C117.266 127.125 118.204 127.467 118.895 128.077C119.587 128.686 119.975 129.513 119.975 130.375V142.562L125.506 156.749C126.327 158.556 127.743 160.105 129.572 161.197C131.401 162.289 133.558 162.873 135.767 162.875H149.346Z" fill="#747F84"/>
<path d="M116.297 127.125H95.5732C94.7657 124.84 94.9831 122.368 96.1808 120.22C97.3785 118.072 99.4652 116.41 102.011 115.577C104.557 114.744 107.369 114.803 109.867 115.742C112.365 116.681 114.36 118.429 115.44 120.625C116.582 119.789 117.971 119.256 119.444 119.089C120.917 118.921 122.413 119.126 123.759 119.68C125.105 120.233 126.244 121.112 127.045 122.215C127.846 123.317 128.274 124.597 128.281 125.906V158.406C128.281 159.376 127.844 160.306 127.066 160.992C126.288 161.677 125.233 162.063 124.133 162.063C123.033 162.063 121.977 161.677 121.2 160.992C120.422 160.306 119.984 159.376 119.984 158.406V130.375C119.984 129.513 119.596 128.686 118.904 128.077C118.213 127.467 117.275 127.125 116.297 127.125Z" fill="#57B260"/>
<path d="M107.865 120.082C108.118 119.447 107.349 118.631 106.148 118.259C104.947 117.888 103.768 118.102 103.515 118.737C103.263 119.372 104.031 120.188 105.232 120.56C106.433 120.931 107.612 120.717 107.865 120.082Z" fill="#A3D6A5"/>
<path d="M87.8913 123.962C88.0429 123.581 87.5778 123.09 86.8523 122.866C86.1269 122.641 85.4158 122.769 85.2641 123.15C85.1125 123.531 85.5776 124.021 86.3031 124.246C87.0285 124.47 87.7396 124.343 87.8913 123.962Z" fill="#A3D6A5"/>
<path d="M110.766 123.875H109.383C107.048 123.875 104.779 123.196 102.927 121.943C101.075 120.689 99.7439 118.932 99.1409 116.944C97.4441 118.122 96.194 119.726 95.5568 121.545C94.9195 123.363 94.9253 125.309 95.5732 127.125H116.297C117.275 127.125 118.213 127.467 118.904 128.077C119.596 128.686 119.984 129.513 119.984 130.375V162.062H124.594V130.375C124.594 128.651 123.817 126.998 122.434 125.779C121.051 124.56 119.175 123.875 117.219 123.875H110.766Z" fill="#3D9940"/>
<path d="M125.239 187.868C119.87 189.621 114.187 190.513 108.461 190.5C85.8105 190.5 67.4375 177.037 67.4375 160.438C67.4375 160.169 67.4375 159.909 67.4375 159.625C67.6564 154.319 69.6906 149.195 73.273 144.927C75.6143 142.133 76.8074 138.721 76.6562 135.25H72.9688C71.7621 135.25 70.6034 134.833 69.7416 134.089C68.8798 133.345 68.3835 132.332 68.3594 131.269C68.3439 130.969 68.3717 130.669 68.4423 130.375C69.1983 126.881 72.683 127.125 75.043 127.125C80.187 126.995 91.2219 127.125 116.288 127.125C117.266 127.125 118.204 127.467 118.895 128.077C119.587 128.686 119.975 129.513 119.975 130.375V139.313H110.378C108.746 139.313 107.133 139.632 105.657 140.247C104.181 140.862 102.877 141.758 101.84 142.869C100.803 143.98 100.057 145.28 99.6576 146.676C99.2579 148.071 99.2136 149.527 99.528 150.939L104.405 172.877C104.898 175.095 106.252 177.094 108.233 178.53C110.214 179.966 112.699 180.751 115.264 180.75H123.672C128.281 180.75 129.563 186.438 125.239 187.868Z" fill="#596870"/>
<path d="M98.7812 131.188C98.2923 131.188 97.8233 131.016 97.4775 130.712C97.1318 130.407 96.9375 129.993 96.9375 129.562V127.125H72.9688C71.7463 127.125 70.5739 127.553 69.7094 128.315C68.845 129.077 68.3594 130.11 68.3594 131.188C68.3594 132.265 68.845 133.298 69.7094 134.06C70.5739 134.822 71.7463 135.25 72.9688 135.25H119.984V131.188H98.7812ZM147.641 131.188C147.641 132.265 147.155 133.298 146.291 134.06C145.426 134.822 144.254 135.25 143.031 135.25H128.281V127.125H143.031C144.254 127.125 145.426 127.553 146.291 128.315C147.155 129.077 147.641 130.11 147.641 131.188Z" fill="#505D68"/>
<path d="M96.9375 135.25H72.9688C71.7463 135.25 70.5739 134.822 69.7094 134.06C68.845 133.298 68.3594 132.265 68.3594 131.188H92.3281C93.5506 131.188 94.723 131.616 95.5874 132.377C96.4519 133.139 96.9375 134.173 96.9375 135.25Z" fill="#404B4F"/>
<path d="M143.953 179.466C154.426 168.749 155.016 154.547 145.907 143.505C144.486 141.79 143.567 139.791 143.234 137.687C145.19 137.664 147.055 136.956 148.419 135.72C149.783 134.485 150.534 132.822 150.508 131.098C150.481 129.374 149.678 127.73 148.276 126.528C146.874 125.326 144.987 124.664 143.031 124.688H130.945C130.733 123.272 130.155 121.918 129.256 120.73C128.357 119.542 127.16 118.551 125.759 117.834C124.358 117.117 122.789 116.692 121.173 116.593C119.556 116.494 117.936 116.722 116.435 117.261C115.25 115.86 113.727 114.709 111.975 113.89C110.223 113.072 108.286 112.607 106.306 112.529C104.325 112.452 102.349 112.763 100.522 113.441C98.6943 114.119 97.0606 115.146 95.739 116.449C93.3052 118.886 97.4168 122.136 99.8598 119.699C100.737 118.833 101.849 118.176 103.091 117.789C104.333 117.401 105.666 117.297 106.966 117.484C108.266 117.671 109.492 118.144 110.53 118.859C111.568 119.574 112.385 120.509 112.904 121.576C113.076 121.923 113.338 122.231 113.668 122.474C113.998 122.717 114.388 122.889 114.807 122.976C115.226 123.062 115.662 123.062 116.081 122.974C116.5 122.886 116.889 122.713 117.219 122.469C118.123 121.801 119.265 121.436 120.445 121.438C121.789 121.44 123.077 121.911 124.028 122.749C124.978 123.586 125.513 124.722 125.516 125.906V158.406C125.516 158.729 125.37 159.039 125.111 159.268C124.851 159.497 124.499 159.625 124.133 159.625C123.766 159.625 123.414 159.497 123.155 159.268C122.896 159.039 122.75 158.729 122.75 158.406V130.375C122.75 128.867 122.07 127.42 120.86 126.353C119.65 125.287 118.008 124.688 116.297 124.688H96.6793C96.1593 122.611 94.8507 120.753 92.9698 119.422C91.0889 118.09 88.7485 117.364 86.3359 117.364C83.9232 117.364 81.5828 118.09 79.7019 119.422C77.8211 120.753 76.5124 122.611 75.9924 124.688H72.9687C71.0127 124.688 69.1368 125.372 67.7538 126.591C66.3707 127.81 65.5937 129.464 65.5937 131.187C65.5937 134.283 68.1012 137.687 73.7154 137.687C73.3832 139.788 72.468 141.783 71.0512 143.497C61.9523 154.587 62.5884 168.806 72.9687 179.491L68.4607 192.214C68.3315 192.581 68.3023 192.969 68.3755 193.347C68.4487 193.725 68.6221 194.083 68.8818 194.391C69.1414 194.699 69.4799 194.949 69.8697 195.12C70.2595 195.291 70.6896 195.378 71.1249 195.375C79.726 195.375 77.366 196.789 83.5241 187.152C98.2741 194.766 118.177 194.985 133.388 187.152L137.859 194.156C138.864 195.716 140.266 195.375 145.797 195.375C146.23 195.374 146.657 195.284 147.043 195.112C147.429 194.939 147.764 194.689 148.02 194.381C148.277 194.074 148.448 193.718 148.52 193.341C148.591 192.965 148.562 192.579 148.433 192.214L143.953 179.466ZM143.031 132.812H131.047V129.562H143.031C143.52 129.562 143.989 129.734 144.335 130.038C144.681 130.343 144.875 130.757 144.875 131.187C144.875 131.618 144.681 132.032 144.335 132.337C143.989 132.641 143.52 132.812 143.031 132.812ZM86.3359 122.25C87.2712 122.247 88.1891 122.473 88.9868 122.904C89.7845 123.334 90.4307 123.952 90.853 124.688H81.8279C82.252 123.955 82.8973 123.34 83.6927 122.91C84.4881 122.48 85.4027 122.251 86.3359 122.25ZM75.0429 190.5H74.8862L77.4213 183.35C77.9068 183.713 78.4077 184.068 78.924 184.414L75.0429 190.5ZM75.5407 146.349C77.6737 143.775 78.9766 140.74 79.3112 137.566C79.9321 137.386 80.4608 137.019 80.8036 136.528C81.1463 136.038 81.2811 135.457 81.1839 134.887C81.0867 134.317 80.7638 133.797 80.2725 133.417C79.7812 133.037 79.1533 132.823 78.4999 132.812H72.9687C72.4797 132.812 72.0107 132.641 71.6649 132.337C71.3192 132.032 71.1249 131.618 71.1249 131.187C71.1249 130.757 71.3192 130.343 71.6649 130.038C72.0107 129.734 72.4797 129.562 72.9687 129.562C118.943 129.562 117.219 129.189 117.219 130.375V132.812H87.7187C84.0312 132.812 84.0312 137.687 87.7187 137.687H117.219V158.406C117.222 159.609 117.629 160.783 118.388 161.783C119.147 162.782 120.223 163.562 121.483 164.023C122.743 164.485 124.129 164.609 125.468 164.378C126.807 164.148 128.039 163.574 129.009 162.729C129.659 162.165 130.174 161.492 130.524 160.749C130.874 160.007 131.052 159.21 131.047 158.406V137.687H137.638C137.99 140.82 139.285 143.813 141.39 146.357C156.279 164.5 138.357 188.063 108.461 188.063C78.9055 188.063 60.4957 164.687 75.5315 146.349H75.5407ZM141.916 190.5L138.025 184.406C138.535 184.06 139.036 183.702 139.528 183.334L142.072 190.5H141.916Z" fill="#31352E"/>
<path d="M105.234 142.562V146.625C105.234 149.875 110.766 149.875 110.766 146.625V142.562C110.766 139.312 105.234 139.312 105.234 142.562ZM120.906 112.5C122.73 112.5 124.512 112.023 126.028 111.131C127.544 110.238 128.726 108.969 129.423 107.484C130.121 106 130.304 104.366 129.948 102.79C129.592 101.214 128.714 99.7661 127.425 98.6298C126.136 97.4935 124.493 96.7196 122.705 96.4061C120.916 96.0926 119.063 96.2535 117.378 96.8685C115.694 97.4834 114.254 98.5248 113.241 99.861C112.228 101.197 111.688 102.768 111.688 104.375C111.688 106.53 112.659 108.597 114.388 110.12C116.116 111.644 118.461 112.5 120.906 112.5ZM120.906 101.125C121.636 101.125 122.349 101.316 122.955 101.673C123.561 102.03 124.034 102.537 124.313 103.131C124.592 103.725 124.665 104.379 124.523 105.009C124.381 105.639 124.029 106.219 123.514 106.673C122.998 107.128 122.341 107.437 121.626 107.563C120.91 107.688 120.169 107.624 119.495 107.378C118.821 107.132 118.245 106.715 117.84 106.181C117.435 105.646 117.219 105.018 117.219 104.375C117.219 103.513 117.607 102.686 118.299 102.077C118.99 101.467 119.928 101.125 120.906 101.125ZM90.9453 111.687C91.7658 111.687 92.5679 111.473 93.2501 111.071C93.9323 110.67 94.464 110.099 94.778 109.43C95.092 108.762 95.1741 108.027 95.014 107.318C94.854 106.609 94.4589 105.957 93.8787 105.446C93.2985 104.935 92.5594 104.586 91.7546 104.445C90.9499 104.304 90.1158 104.377 89.3578 104.653C88.5997 104.93 87.9519 105.399 87.496 106C87.0402 106.601 86.7969 107.308 86.7969 108.031C86.7969 109.001 87.2339 109.931 88.0119 110.617C88.7899 111.302 89.8451 111.687 90.9453 111.687ZM90.9453 106.812C91.2188 106.812 91.4862 106.884 91.7136 107.018C91.941 107.152 92.1182 107.342 92.2229 107.565C92.3275 107.788 92.3549 108.033 92.3016 108.269C92.2482 108.505 92.1165 108.723 91.9231 108.893C91.7297 109.063 91.4833 109.18 91.2151 109.227C90.9468 109.274 90.6688 109.249 90.4161 109.157C90.1635 109.065 89.9475 108.909 89.7955 108.708C89.6436 108.508 89.5625 108.272 89.5625 108.031C89.5625 107.708 89.7082 107.398 89.9675 107.169C90.2268 106.941 90.5786 106.812 90.9453 106.812Z" fill="#31352E"/>
<rect x="0.5" y="0.5" width="214" height="288" rx="19.5" stroke="#3A1C20"/>
</svg>
